%YAML 1.1
%TAG !u! tag:unity3d.com,2011:
--- !u!43 &4300000
Mesh:
  m_ObjectHideFlags: 0
  m_CorrespondingSourceObject: {fileID: 0}
  m_PrefabInstance: {fileID: 0}
  m_PrefabAsset: {fileID: 0}
  m_Name: Object_8
  serializedVersion: 11
  m_SubMeshes:
  - serializedVersion: 2
    firstByte: 0
    indexCount: 24
    topology: 0
    baseVertex: 0
    firstVertex: 0
    vertexCount: 9
    localAABB:
      m_Center: {x: -1.2246495, y: 1.2128967, z: 5.547606}
      m_Extent: {x: 1.2110819, y: 4.6160755, z: 0.44337082}
  m_Shapes:
    vertices: []
    shapes: []
    channels: []
    fullWeights: []
  m_BindPose: []
  m_BoneNameHashes: 
  m_RootBoneNameHash: 0
  m_BonesAABB: []
  m_VariableBoneCountWeights:
    m_Data: 
  m_MeshCompression: 0
  m_IsReadable: 0
  m_KeepVertices: 1
  m_KeepIndices: 1
  m_IndexFormat: 0
  m_IndexBuffer: 000001000200000003000100040003000000030005000100040006000300030007000500060007000300060008000700
  m_VertexData:
    serializedVersion: 3
    m_VertexCount: 9
    m_Channels:
    - stream: 0
      offset: 0
      format: 0
      dimension: 3
    - stream: 0
      offset: 12
      format: 0
      dimension: 3
    - stream: 0
      offset: 24
      format: 0
      dimension: 4
    - stream: 0
      offset: 0
      format: 0
      dimension: 0
    - stream: 0
      offset: 40
      format: 0
      dimension: 2
    - stream: 0
      offset: 0
      format: 0
      dimension: 0
    - stream: 0
      offset: 0
      format: 0
      dimension: 0
    - stream: 0
      offset: 0
      format: 0
      dimension: 0
    - stream: 0
      offset: 0
      format: 0
      dimension: 0
    - stream: 0
      offset: 0
      format: 0
      dimension: 0
    - stream: 0
      offset: 0
      format: 0
      dimension: 0
    - stream: 0
      offset: 0
      format: 0
      dimension: 0
    - stream: 0
      offset: 0
      format: 0
      dimension: 0
    - stream: 0
      offset: 0
      format: 0
      dimension: 0
    m_DataSize: 432
    _typelessdata: f9e21bc033409b3fe555a3402f04b03e000000008c6570bf000000000000803f00000000000080bf0000003f0000803f38c19cbfafcd59c0fd85b1402f04b03e000000008c6570bf000000000000803f00000000000080bf000000000000003fede21bc0afcd59c0e555a3402f04b03e000000008c6570bf000000000000803f00000000000080bf000000000000803f50c19cbf33409b3ffd85b1402f04b03e000000008c6570bf000000000000803f00000000000080bf0000003f0000003f06e31bc0f186ba40e555a3402f04b03e000000008c6570bf000000000000803f00000000000080bf0000803f0000803fb64a5ebcafcd59c015b6bf402f04b03e000000008c6570bf000000000000803f00000000000080bf000000000000000069c19cbff186ba40fd85b1402f04b03e000000008c6570bf000000000000803f00000000000080bf0000803f0000003f11575ebc33409b3f15b6bf402f04b03e000000008c6570bf000000000000803f00000000000080bf0000003f000000006d635ebcf186ba4015b6bf402f04b03e000000008c6570bf000000000000803f00000000000080bf0000803f00000000
  m_CompressedMesh:
    m_Vertices:
      m_NumItems: 0
      m_Range: 0
      m_Start: 0
      m_Data: 
      m_BitSize: 0
    m_UV:
      m_NumItems: 0
      m_Range: 0
      m_Start: 0
      m_Data: 
      m_BitSize: 0
    m_Normals:
      m_NumItems: 0
      m_Range: 0
      m_Start: 0
      m_Data: 
      m_BitSize: 0
    m_Tangents:
      m_NumItems: 0
      m_Range: 0
      m_Start: 0
      m_Data: 
      m_BitSize: 0
    m_Weights:
      m_NumItems: 0
      m_Data: 
      m_BitSize: 0
    m_NormalSigns:
      m_NumItems: 0
      m_Data: 
      m_BitSize: 0
    m_TangentSigns:
      m_NumItems: 0
      m_Data: 
      m_BitSize: 0
    m_FloatColors:
      m_NumItems: 0
      m_Range: 0
      m_Start: 0
      m_Data: 
      m_BitSize: 0
    m_BoneIndices:
      m_NumItems: 0
      m_Data: 
      m_BitSize: 0
    m_Triangles:
      m_NumItems: 0
      m_Data: 
      m_BitSize: 0
    m_UVInfo: 0
  m_LocalAABB:
    m_Center: {x: -1.2246495, y: 1.2128967, z: 5.547606}
    m_Extent: {x: 1.2110819, y: 4.6160755, z: 0.44337082}
  m_MeshUsageFlags: 0
  m_CookingOptions: 30
  m_BakedConvexCollisionMesh: 
  m_BakedTriangleCollisionMesh: 
  'm_MeshMetrics[0]': 23.813154
  'm_MeshMetrics[1]': 1
  m_MeshOptimizationFlags: -1
  m_StreamData:
    serializedVersion: 2
    offset: 0
    size: 0
    path: 
